<svg id="Layer_1" data-name="Layer 1" xmlns="http://www.w3.org/2000/svg" viewBox="0 0 201.6 46.31"><defs><style>.cls-1{fill:#0083ad;}.cls-2{fill:#fff;}.cls-3{fill:none;stroke:#0083ad;stroke-miterlimit:10;stroke-width:1.37px;}</style></defs><path class="cls-1" d="M37.77,6.64a25.9,25.9,0,0,1-14.13-4.4L21,.46A2.11,2.11,0,0,0,19.82,0a2.11,2.11,0,0,0-1.14.46L16,2.24A25.9,25.9,0,0,1,1.87,6.64C.56,6.67,0,7.24,0,8.56V19.3a24.88,24.88,0,0,0,.54,5.41A24.28,24.28,0,0,0,9.45,39.06c2.09,1.63,4.28,3.2,6.39,4.72l2.82,2a2,2,0,0,0,1.15.49h0A2,2,0,0,0,21,45.82l2.82-2c2.11-1.52,4.3-3.09,6.39-4.72A24.28,24.28,0,0,0,39.1,24.71a24.88,24.88,0,0,0,.54-5.41V8.56C39.64,7.24,39.08,6.67,37.77,6.64ZM37.66,24.4a22.79,22.79,0,0,1-8.38,13.5c-2.06,1.61-4.23,3.18-6.33,4.69-.95.68-1.9,1.36-2.84,2a1.68,1.68,0,0,1-.29.19,1.68,1.68,0,0,1-.29-.19c-.94-.69-1.89-1.37-2.84-2-2.1-1.51-4.27-3.08-6.33-4.69A22.79,22.79,0,0,1,2,24.4a23.27,23.27,0,0,1-.52-5.1c0-2.54,0-5.07,0-7.61V8.56c0-.27,0-.39,0-.41a1.53,1.53,0,0,1,.41,0A27.44,27.44,0,0,0,16.82,3.46l2.67-1.78c.2-.14.3-.19.3-.2h.06s.1.06.3.2l2.67,1.78A27.44,27.44,0,0,0,37.75,8.11a1.53,1.53,0,0,1,.41,0s0,.14,0,.41v3.13c0,2.54,0,5.07,0,7.61A23.27,23.27,0,0,1,37.66,24.4Z"/><path class="cls-2" d="M81.08,8.77V33.45H79.53v-21c0-.3,0-.62,0-1L69.87,28.71a.77.77,0,0,1-.7.45h-.28a.77.77,0,0,1-.7-.45l-10-17.28c0,.35.05.68.05,1v21H56.7V8.77h1.24a1,1,0,0,1,.38.06.62.62,0,0,1,.28.28l10,17.16A7.71,7.71,0,0,1,69,27.32c.07-.19.15-.37.23-.55s.17-.36.26-.52L79.18,9.11a.59.59,0,0,1,.29-.28,1.07,1.07,0,0,1,.39-.06Z"/><path class="cls-2" d="M105.86,29.3a.38.38,0,0,1,.3.13l.7.75a12.29,12.29,0,0,1-1.67,1.47,10,10,0,0,1-2,1.12,12.2,12.2,0,0,1-2.35.71,14.58,14.58,0,0,1-2.82.25,12,12,0,0,1-4.7-.9,10.38,10.38,0,0,1-3.67-2.54,11.52,11.52,0,0,1-2.38-4,15,15,0,0,1-.85-5.19A14.5,14.5,0,0,1,87.32,16a11.86,11.86,0,0,1,2.45-4,10.79,10.79,0,0,1,3.76-2.58,12.51,12.51,0,0,1,4.85-.91,12,12,0,0,1,4.48.78,11.82,11.82,0,0,1,3.56,2.22l-.54.78a.48.48,0,0,1-.43.21,1.42,1.42,0,0,1-.68-.38,9.67,9.67,0,0,0-1.31-.85,11.42,11.42,0,0,0-2.09-.85,10.45,10.45,0,0,0-3-.38,10.64,10.64,0,0,0-4.09.77A8.9,8.9,0,0,0,91.1,13,10,10,0,0,0,89,16.49a13.41,13.41,0,0,0-.75,4.62A13.34,13.34,0,0,0,89,25.78a10.21,10.21,0,0,0,2.08,3.48,9,9,0,0,0,3.13,2.18,9.86,9.86,0,0,0,3.9.76A13.9,13.9,0,0,0,100.5,32a9,9,0,0,0,1.91-.52,8.9,8.9,0,0,0,1.62-.85,12.25,12.25,0,0,0,1.48-1.19.87.87,0,0,1,.18-.11A.41.41,0,0,1,105.86,29.3Z"/><path class="cls-2" d="M120.31,32.18a7.65,7.65,0,0,0,3.18-.62,6.65,6.65,0,0,0,2.38-1.72,7.45,7.45,0,0,0,1.49-2.59,9.56,9.56,0,0,0,.52-3.21V8.77h1.78V24a11,11,0,0,1-.65,3.81,9.11,9.11,0,0,1-1.85,3.08,8.64,8.64,0,0,1-3,2.07,10.51,10.51,0,0,1-7.8,0,8.55,8.55,0,0,1-3-2.07,9.11,9.11,0,0,1-1.85-3.08A11,11,0,0,1,111,24V8.77h1.8V24a9.92,9.92,0,0,0,.51,3.22,7.81,7.81,0,0,0,1.49,2.59,6.65,6.65,0,0,0,2.37,1.72A7.65,7.65,0,0,0,120.31,32.18Z"/><path class="cls-1" d="M150.7,20.72a7.62,7.62,0,0,0-1.32-2.66,5.93,5.93,0,0,0-2.1-1.66,6.65,6.65,0,0,0-2.81-.57,6.84,6.84,0,0,0-3.52.88,8.64,8.64,0,0,0-2.65,2.41V8.7h-1.68V33.46h1a.43.43,0,0,0,.47-.44l.13-2.14a6.38,6.38,0,0,0,2.24,2.1,6.49,6.49,0,0,0,3.15.71,7.26,7.26,0,0,0,3.19-.68,6.49,6.49,0,0,0,2.36-1.9,8.66,8.66,0,0,0,1.48-3,14,14,0,0,0,.5-3.85A13.08,13.08,0,0,0,150.7,20.72Zm-1.64,7a7.33,7.33,0,0,1-1.16,2.52,5.1,5.1,0,0,1-1.94,1.6,6.21,6.21,0,0,1-2.71.56,5.45,5.45,0,0,1-4.95-2.71V20.52A8.83,8.83,0,0,1,140.77,18a5.86,5.86,0,0,1,3.23-.89A4.81,4.81,0,0,1,148,19a8.62,8.62,0,0,1,1.43,5.4A13.55,13.55,0,0,1,149.06,27.7Z"/><path class="cls-1" d="M162.25,15.82a8.26,8.26,0,0,1,3.34.64,6.7,6.7,0,0,1,2.48,1.8,8,8,0,0,1,1.55,2.82,12.13,12.13,0,0,1,.53,3.69,12,12,0,0,1-.53,3.68,8.06,8.06,0,0,1-1.55,2.81,6.68,6.68,0,0,1-2.48,1.79,9.17,9.17,0,0,1-6.68,0,6.83,6.83,0,0,1-2.5-1.79,8.06,8.06,0,0,1-1.55-2.81,12,12,0,0,1-.53-3.68,12.13,12.13,0,0,1,.53-3.69,8,8,0,0,1,1.55-2.82,6.85,6.85,0,0,1,2.5-1.8A8.22,8.22,0,0,1,162.25,15.82Zm0,16.55a6.36,6.36,0,0,0,2.71-.53,5.16,5.16,0,0,0,1.94-1.52,6.86,6.86,0,0,0,1.15-2.4,11.81,11.81,0,0,0,.39-3.15,11.79,11.79,0,0,0-.39-3.14,6.88,6.88,0,0,0-1.15-2.42A5.31,5.31,0,0,0,165,17.67a7.07,7.07,0,0,0-5.42,0,5.23,5.23,0,0,0-1.94,1.54,6.91,6.91,0,0,0-1.17,2.42,11.79,11.79,0,0,0-.39,3.14,11.81,11.81,0,0,0,.39,3.15,6.89,6.89,0,0,0,1.17,2.4,5.08,5.08,0,0,0,1.94,1.52A6.33,6.33,0,0,0,162.25,32.37Z"/><path class="cls-1" d="M181,16a8.36,8.36,0,0,1,3.36.54,6.82,6.82,0,0,1,2.53,1.74A7.87,7.87,0,0,1,188.48,21a11.6,11.6,0,0,1,.63,3.67,11.92,11.92,0,0,1-.43,3.69,8.2,8.2,0,0,1-1.47,2.85,6.59,6.59,0,0,1-2.43,1.86,8.35,8.35,0,0,1-3.33.72,8.52,8.52,0,0,1-3.35-.54,6.72,6.72,0,0,1-2.54-1.73,7.89,7.89,0,0,1-1.63-2.76,12.19,12.19,0,0,1-.63-3.67,12,12,0,0,1,.43-3.7,8,8,0,0,1,1.48-2.86,7,7,0,0,1,2.44-1.87A8.3,8.3,0,0,1,181,16Zm.45,16.54a6.38,6.38,0,0,0,2.69-.6,5.12,5.12,0,0,0,1.9-1.58,6.68,6.68,0,0,0,1.09-2.43,12,12,0,0,0,.3-3.15,11.91,11.91,0,0,0-.46-3.13,6.93,6.93,0,0,0-1.23-2.39,5.18,5.18,0,0,0-2-1.49,7,7,0,0,0-5.43.15,5.2,5.2,0,0,0-1.89,1.59,6.87,6.87,0,0,0-1.1,2.45,11.62,11.62,0,0,0-.31,3.15,11.83,11.83,0,0,0,.47,3.13,6.84,6.84,0,0,0,1.24,2.37,5,5,0,0,0,2,1.47A6.32,6.32,0,0,0,181.42,32.52Z"/><path class="cls-1" d="M197.8,33.51a3.76,3.76,0,0,1-2.75-1,4.12,4.12,0,0,1-1-3V17.65h-2.49a.47.47,0,0,1-.32-.1.38.38,0,0,1-.12-.3V16.6l3-.2.42-6.21a.57.57,0,0,1,.14-.28.38.38,0,0,1,.3-.12h.78v6.63h5.47v1.24h-5.48V29.43a3.54,3.54,0,0,0,.18,1.23,2.32,2.32,0,0,0,.5.84,2,2,0,0,0,.76.49,2.65,2.65,0,0,0,.94.16,2.91,2.91,0,0,0,1.08-.18,4.46,4.46,0,0,0,.79-.4,6.35,6.35,0,0,0,.54-.4.57.57,0,0,1,.33-.19.38.38,0,0,1,.28.18l.45.73a4.84,4.84,0,0,1-1.68,1.18A5.37,5.37,0,0,1,197.8,33.51Z"/><path class="cls-3" d="M24.8,19.9a5,5,0,1,0-6.75,4.64V31.4h3.54V24.54A5,5,0,0,0,24.8,19.9Z"/></svg>