<svg id="Layer_1" data-name="Layer 1" xmlns="http://www.w3.org/2000/svg" viewBox="0 0 39.64 46.31"><defs><style>.cls-1{fill:#fff;}</style></defs><path class="cls-1" d="M37.77,6.64a25.9,25.9,0,0,1-14.13-4.4L21,.46A2.11,2.11,0,0,0,19.82,0a2.11,2.11,0,0,0-1.14.46L16,2.24A25.9,25.9,0,0,1,1.87,6.64C.56,6.67,0,7.24,0,8.56V19.3a24.88,24.88,0,0,0,.54,5.41A24.28,24.28,0,0,0,9.45,39.06c2.09,1.63,4.28,3.2,6.39,4.72l2.82,2a2,2,0,0,0,1.15.49h0A2,2,0,0,0,21,45.82l2.82-2c2.11-1.52,4.3-3.09,6.39-4.72A24.28,24.28,0,0,0,39.1,24.71a24.88,24.88,0,0,0,.54-5.41V8.56C39.64,7.24,39.08,6.67,37.77,6.64ZM37.66,24.4a22.79,22.79,0,0,1-8.38,13.5c-2.06,1.61-4.23,3.18-6.33,4.69-.95.68-1.9,1.36-2.84,2a1.68,1.68,0,0,1-.29.19,1.68,1.68,0,0,1-.29-.19c-.94-.69-1.89-1.37-2.84-2-2.1-1.51-4.27-3.08-6.33-4.69A22.79,22.79,0,0,1,2,24.4a23.27,23.27,0,0,1-.52-5.1c0-2.54,0-5.07,0-7.61V8.56c0-.27,0-.39,0-.41a1.53,1.53,0,0,1,.41,0A27.44,27.44,0,0,0,16.82,3.46l2.67-1.78c.2-.14.3-.19.3-.2h.06s.1.06.3.2l2.67,1.78A27.44,27.44,0,0,0,37.75,8.11a1.53,1.53,0,0,1,.41,0s0,.14,0,.41v3.13c0,2.54,0,5.07,0,7.61A23.27,23.27,0,0,1,37.66,24.4Z"/><path class="cls-1" d="M22.28,32.08H17.36V25a5.66,5.66,0,1,1,8.12-5.09A5.61,5.61,0,0,1,22.28,25Zm-3.54-1.37H20.9V24.06l.44-.17a4.27,4.27,0,0,0,1.18-7.32,4.35,4.35,0,0,0-3.64-.86,4.28,4.28,0,0,0-.58,8.18l.44.17Z"/></svg>